<svg width="72" height="96" viewBox="0 0 72 96" fill="none" xmlns="http://www.w3.org/2000/svg">
<rect x="40" y="8" width="8" height="8" fill="#FFF5E2"/>
<rect x="32" y="8" width="8" height="8" fill="#FFF5E2"/>
<rect x="24" y="8" width="8" height="8" fill="#FFF5E2"/>
<rect x="16" y="8" width="8" height="8" fill="#FFF5E2"/>
<rect x="48" y="8" width="8" height="8" fill="#FFF5E2"/>
<rect x="40" y="16" width="8" height="8" fill="#FFDAB5"/>
<rect x="32" y="16" width="8" height="8" fill="#FFDAB5"/>
<rect x="24" y="16" width="8" height="8" fill="#FFDAB5"/>
<rect x="16" y="16" width="8" height="8" fill="#FFDAB5"/>
<rect x="48" y="16" width="8" height="8" fill="#FFDAB5"/>
<rect x="56" y="16" width="8" height="8" fill="#FFF5E2"/>
<rect x="8" y="16" width="8" height="8" fill="#FFF5E2"/>
<rect x="40" y="24" width="8" height="8" fill="#2D9CDB"/>
<rect x="32" y="24" width="8" height="8" fill="#FFDAB5"/>
<rect x="24" y="24" width="8" height="8" fill="#2D9CDB"/>
<rect x="16" y="24" width="8" height="8" fill="#FFDAB5"/>
<rect x="48" y="24" width="8" height="8" fill="#FFDAB5"/>
<rect x="56" y="24" width="8" height="8" fill="#FFF5E2"/>
<rect x="8" y="24" width="8" height="8" fill="#FFF5E2"/>
<rect x="40" y="32" width="8" height="8" fill="#FFDAB5"/>
<rect x="32" y="32" width="8" height="8" fill="#FFDAB5"/>
<rect x="24" y="32" width="8" height="8" fill="#FFDAB5"/>
<rect x="16" y="32" width="8" height="8" fill="#FFDAB5"/>
<rect x="48" y="32" width="8" height="8" fill="#FFDAB5"/>
<rect x="56" y="32" width="8" height="8" fill="#FFDAB5"/>
<rect x="8" y="32" width="8" height="8" fill="#FFDAB5"/>
<rect x="40" y="40" width="8" height="8" fill="#FFDAB5"/>
<rect x="32" y="40" width="8" height="8" fill="#FFDAB5"/>
<rect x="24" y="40" width="8" height="8" fill="#FFDAB5"/>
<rect x="16" y="40" width="8" height="8" fill="#FFDAB5"/>
<rect x="48" y="40" width="8" height="8" fill="#FFDAB5"/>
<rect x="56" y="40" width="8" height="8" fill="#FFF5E2"/>
<rect x="8" y="40" width="8" height="8" fill="#FFF5E2"/>
<rect x="40" y="48" width="8" height="8" fill="#FFDAB5"/>
<rect x="32" y="48" width="8" height="8" fill="#FFDAB5"/>
<rect x="24" y="48" width="8" height="8" fill="#FFDAB5"/>
<rect x="16" y="48" width="8" height="8" fill="#FFDAB5"/>
<rect x="48" y="48" width="8" height="8" fill="#FFDAB5"/>
<rect x="40" y="56" width="8" height="8" fill="#FFDAB5"/>
<rect x="32" y="56" width="8" height="8" fill="#FFDAB5"/>
<rect x="24" y="56" width="8" height="8" fill="#FFDAB5"/>
<rect x="16" y="56" width="8" height="8" fill="#99D7D7"/>
<rect x="48" y="56" width="8" height="8" fill="#99D7D7"/>
<rect x="56" y="56" width="8" height="8" fill="#99D7D7"/>
<rect x="56" y="64" width="8" height="8" fill="#99D7D7"/>
<rect x="8" y="56" width="8" height="8" fill="#99D7D7"/>
<rect x="40" y="64" width="8" height="8" fill="#99D7D7"/>
<rect x="32" y="64" width="8" height="8" fill="#99D7D7"/>
<rect x="24" y="64" width="8" height="8" fill="#99D7D7"/>
<rect x="16" y="64" width="8" height="8" fill="#99D7D7"/>
<rect x="48" y="64" width="8" height="8" fill="#99D7D7"/>
<rect x="8" y="64" width="8" height="8" fill="#99D7D7"/>
<rect y="56" width="8" height="8" fill="#FFDAB5"/>
<rect y="64" width="8" height="8" fill="#FFDAB5"/>
<rect x="64" y="56" width="8" height="8" fill="#FFDAB5"/>
<rect x="64" y="64" width="8" height="8" fill="#FFDAB5"/>
<rect x="40" y="72" width="8" height="8" fill="#99D7D7"/>
<rect x="32" y="72" width="8" height="8" fill="#99D7D7"/>
<rect x="24" y="72" width="8" height="8" fill="#99D7D7"/>
<rect x="16" y="72" width="8" height="8" fill="#99D7D7"/>
<rect x="48" y="72" width="8" height="8" fill="#99D7D7"/>
<rect x="40" y="80" width="8" height="8" fill="#25606D"/>
<rect x="32" y="80" width="8" height="8" fill="#25606D"/>
<rect x="24" y="80" width="8" height="8" fill="#25606D"/>
<rect x="16" y="80" width="8" height="8" fill="#25606D"/>
<rect x="48" y="80" width="8" height="8" fill="#25606D"/>
<rect x="40" y="88" width="8" height="8" fill="#858183"/>
<rect x="24" y="88" width="8" height="8" fill="#858183"/>
<rect x="16" y="88" width="8" height="8" fill="#858183"/>
<rect x="48" y="88" width="8" height="8" fill="#858183"/>
<rect x="32" width="8" height="8" fill="#FFF5E2"/>
<rect x="40" width="8" height="8" fill="#FFF5E2"/>
</svg>
