<svg width="304" height="104" viewBox="0 0 304 104" fill="none" xmlns="http://www.w3.org/2000/svg">
<rect x="156" y="16" width="8" height="8" fill="#FFF5E2"/>
<rect x="148" y="16" width="8" height="8" fill="#FFF5E2"/>
<rect x="140" y="16" width="8" height="8" fill="#FFF5E2"/>
<rect x="132" y="16" width="8" height="8" fill="#FFF5E2"/>
<rect x="164" y="16" width="8" height="8" fill="#FFF5E2"/>
<rect x="156" y="24" width="8" height="8" fill="#FFDAB5"/>
<rect x="148" y="24" width="8" height="8" fill="#FFDAB5"/>
<rect x="140" y="24" width="8" height="8" fill="#FFDAB5"/>
<rect x="132" y="24" width="8" height="8" fill="#FFDAB5"/>
<rect x="164" y="24" width="8" height="8" fill="#FFDAB5"/>
<rect x="172" y="24" width="8" height="8" fill="#FFF5E2"/>
<rect x="124" y="24" width="8" height="8" fill="#FFF5E2"/>
<rect x="156" y="32" width="8" height="8" fill="#2D9CDB"/>
<rect x="148" y="32" width="8" height="8" fill="#FFDAB5"/>
<rect x="140" y="32" width="8" height="8" fill="#2D9CDB"/>
<rect x="132" y="32" width="8" height="8" fill="#FFDAB5"/>
<rect x="164" y="32" width="8" height="8" fill="#FFDAB5"/>
<rect x="172" y="32" width="8" height="8" fill="#FFF5E2"/>
<rect x="124" y="32" width="8" height="8" fill="#FFF5E2"/>
<rect x="156" y="40" width="8" height="8" fill="#FFDAB5"/>
<rect x="148" y="40" width="8" height="8" fill="#FFDAB5"/>
<rect x="140" y="40" width="8" height="8" fill="#FFDAB5"/>
<rect x="132" y="40" width="8" height="8" fill="#FFDAB5"/>
<rect x="164" y="40" width="8" height="8" fill="#FFDAB5"/>
<rect x="172" y="40" width="8" height="8" fill="#FFDAB5"/>
<rect x="124" y="40" width="8" height="8" fill="#FFDAB5"/>
<rect x="156" y="48" width="8" height="8" fill="#FFDAB5"/>
<rect x="148" y="48" width="8" height="8" fill="#FFDAB5"/>
<rect x="140" y="48" width="8" height="8" fill="#FFDAB5"/>
<rect x="132" y="48" width="8" height="8" fill="#FFDAB5"/>
<rect x="164" y="48" width="8" height="8" fill="#FFDAB5"/>
<rect x="172" y="48" width="8" height="8" fill="#FFF5E2"/>
<rect x="124" y="48" width="8" height="8" fill="#FFF5E2"/>
<rect x="156" y="56" width="8" height="8" fill="#FFDAB5"/>
<rect x="148" y="56" width="8" height="8" fill="#FFDAB5"/>
<rect x="140" y="56" width="8" height="8" fill="#FFDAB5"/>
<rect x="132" y="56" width="8" height="8" fill="#FFDAB5"/>
<rect x="164" y="56" width="8" height="8" fill="#FFDAB5"/>
<rect x="156" y="64" width="8" height="8" fill="#FFDAB5"/>
<rect x="148" y="64" width="8" height="8" fill="#FFDAB5"/>
<rect x="140" y="64" width="8" height="8" fill="#FFDAB5"/>
<rect x="132" y="64" width="8" height="8" fill="#99D7D7"/>
<rect x="164" y="64" width="8" height="8" fill="#99D7D7"/>
<rect x="172" y="64" width="8" height="8" fill="#99D7D7"/>
<rect x="172" y="72" width="8" height="8" fill="#99D7D7"/>
<rect x="124" y="64" width="8" height="8" fill="#99D7D7"/>
<rect x="156" y="72" width="8" height="8" fill="#99D7D7"/>
<rect x="148" y="72" width="8" height="8" fill="#99D7D7"/>
<rect x="140" y="72" width="8" height="8" fill="#99D7D7"/>
<rect x="132" y="72" width="8" height="8" fill="#99D7D7"/>
<rect x="164" y="72" width="8" height="8" fill="#99D7D7"/>
<rect x="124" y="72" width="8" height="8" fill="#99D7D7"/>
<rect x="116" y="64" width="8" height="8" fill="#FFDAB5"/>
<rect x="116" y="72" width="8" height="8" fill="#FFDAB5"/>
<rect x="180" y="64" width="8" height="8" fill="#FFDAB5"/>
<rect x="180" y="72" width="8" height="8" fill="#FFDAB5"/>
<rect x="156" y="80" width="8" height="8" fill="#99D7D7"/>
<rect x="148" y="80" width="8" height="8" fill="#99D7D7"/>
<rect x="140" y="80" width="8" height="8" fill="#99D7D7"/>
<rect x="132" y="80" width="8" height="8" fill="#99D7D7"/>
<rect x="164" y="80" width="8" height="8" fill="#99D7D7"/>
<rect x="156" y="88" width="8" height="8" fill="#25606D"/>
<rect x="148" y="88" width="8" height="8" fill="#25606D"/>
<rect x="140" y="88" width="8" height="8" fill="#25606D"/>
<rect x="132" y="88" width="8" height="8" fill="#25606D"/>
<rect x="164" y="88" width="8" height="8" fill="#25606D"/>
<rect x="156" y="96" width="8" height="8" fill="#858183"/>
<rect x="140" y="96" width="8" height="8" fill="#858183"/>
<rect x="132" y="96" width="8" height="8" fill="#858183"/>
<rect x="164" y="96" width="8" height="8" fill="#858183"/>
<rect x="148" y="8" width="8" height="8" fill="#FFF5E2"/>
<rect x="156" y="8" width="8" height="8" fill="#FFF5E2"/>
<rect x="40" y="12" width="8" height="8" fill="#533F39"/>
<rect x="32" y="12" width="8" height="8" fill="#533F39"/>
<rect x="24" y="12" width="8" height="8" fill="#533F39"/>
<rect x="16" y="12" width="8" height="8" fill="#533F39"/>
<rect x="48" y="12" width="8" height="8" fill="#533F39"/>
<rect x="40" y="20" width="8" height="8" fill="#533F39"/>
<rect x="32" y="20" width="8" height="8" fill="#533F39"/>
<rect x="24" y="20" width="8" height="8" fill="#533F39"/>
<rect x="16" y="20" width="8" height="8" fill="#533F39"/>
<rect x="48" y="20" width="8" height="8" fill="#533F39"/>
<rect x="56" y="20" width="8" height="8" fill="#533F39"/>
<rect x="8" y="20" width="8" height="8" fill="#533F39"/>
<rect x="40" y="28" width="8" height="8" fill="#F5D1AE"/>
<rect x="32" y="28" width="8" height="8" fill="#F5D1AE"/>
<rect x="24" y="28" width="8" height="8" fill="#F5D1AE"/>
<rect x="16" y="28" width="8" height="8" fill="#533F39"/>
<rect x="48" y="28" width="8" height="8" fill="#533F39"/>
<rect x="56" y="28" width="8" height="8" fill="#533F39"/>
<rect x="8" y="28" width="8" height="8" fill="#533F39"/>
<rect x="40" y="36" width="8" height="8" fill="#11515A"/>
<rect x="32" y="36" width="8" height="8" fill="#F5D1AE"/>
<rect x="24" y="36" width="8" height="8" fill="#11515A"/>
<rect x="16" y="36" width="8" height="8" fill="#F5D1AE"/>
<rect x="48" y="36" width="8" height="8" fill="#F5D1AE"/>
<rect x="56" y="36" width="8" height="8" fill="#533F39"/>
<rect x="8" y="36" width="8" height="8" fill="#533F39"/>
<rect x="40" y="44" width="8" height="8" fill="#F5D1AE"/>
<rect x="32" y="44" width="8" height="8" fill="#F5D1AE"/>
<rect x="24" y="44" width="8" height="8" fill="#F5D1AE"/>
<rect x="16" y="44" width="8" height="8" fill="#F5D1AE"/>
<rect x="48" y="44" width="8" height="8" fill="#F5D1AE"/>
<rect x="56" y="44" width="8" height="8" fill="#533F39"/>
<rect x="8" y="44" width="8" height="8" fill="#533F39"/>
<rect x="40" y="52" width="8" height="8" fill="#F5D1AE"/>
<rect x="32" y="52" width="8" height="8" fill="#F5D1AE"/>
<rect x="24" y="52" width="8" height="8" fill="#F5D1AE"/>
<rect x="16" y="52" width="8" height="8" fill="#F5D1AE"/>
<rect x="48" y="52" width="8" height="8" fill="#F5D1AE"/>
<rect x="56" y="52" width="8" height="8" fill="#533F39"/>
<rect x="8" y="52" width="8" height="8" fill="#533F39"/>
<rect x="64" y="28" width="8" height="8" fill="#533F39"/>
<rect x="64" y="36" width="8" height="8" fill="#533F39"/>
<rect x="64" y="44" width="8" height="8" fill="#533F39"/>
<rect x="64" y="52" width="8" height="8" fill="#533F39"/>
<rect y="28" width="8" height="8" fill="#533F39"/>
<rect y="36" width="8" height="8" fill="#533F39"/>
<rect y="44" width="8" height="8" fill="#533F39"/>
<rect y="52" width="8" height="8" fill="#533F39"/>
<rect x="40" y="60" width="8" height="8" fill="#F2C94C"/>
<rect x="32" y="60" width="8" height="8" fill="#F2C94C"/>
<rect x="24" y="60" width="8" height="8" fill="#F2C94C"/>
<rect x="16" y="60" width="8" height="8" fill="#533F39"/>
<rect x="48" y="60" width="8" height="8" fill="#533F39"/>
<rect x="56" y="60" width="8" height="8" fill="#533F39"/>
<rect x="8" y="60" width="8" height="8" fill="#533F39"/>
<rect x="40" y="68" width="8" height="8" fill="#F2C94C"/>
<rect x="32" y="68" width="8" height="8" fill="#F2C94C"/>
<rect x="24" y="68" width="8" height="8" fill="#F2C94C"/>
<rect x="16" y="68" width="8" height="8" fill="#533F39"/>
<rect x="48" y="68" width="8" height="8" fill="#533F39"/>
<rect x="56" y="68" width="8" height="8" fill="#533F39"/>
<rect x="64" y="60" width="8" height="8" fill="#F5D1AE"/>
<rect x="64" y="68" width="8" height="8" fill="#F5D1AE"/>
<rect y="60" width="8" height="8" fill="#F5D1AE"/>
<rect y="68" width="8" height="8" fill="#F5D1AE"/>
<rect x="8" y="68" width="8" height="8" fill="#533F39"/>
<rect x="40" y="76" width="8" height="8" fill="#F2C94C"/>
<rect x="32" y="76" width="8" height="8" fill="#F2C94C"/>
<rect x="24" y="76" width="8" height="8" fill="#F2C94C"/>
<rect x="16" y="76" width="8" height="8" fill="#F2C94C"/>
<rect x="48" y="76" width="8" height="8" fill="#F2C94C"/>
<rect x="40" y="84" width="8" height="8" fill="#19328A"/>
<rect x="32" y="84" width="8" height="8" fill="#19328A"/>
<rect x="24" y="84" width="8" height="8" fill="#19328A"/>
<rect x="16" y="84" width="8" height="8" fill="#19328A"/>
<rect x="48" y="84" width="8" height="8" fill="#19328A"/>
<rect x="40" y="92" width="8" height="8" fill="#BDBDBD"/>
<rect x="24" y="92" width="8" height="8" fill="#BDBDBD"/>
<rect x="16" y="92" width="8" height="8" fill="#BDBDBD"/>
<rect x="48" y="92" width="8" height="8" fill="#BDBDBD"/>
<rect x="272" y="16" width="8" height="8" fill="#AD5D15"/>
<rect x="264" y="16" width="8" height="8" fill="#AD5D15"/>
<rect x="256" y="16" width="8" height="8" fill="#AD5D15"/>
<rect x="248" y="16" width="8" height="8" fill="#AD5D15"/>
<rect x="280" y="16" width="8" height="8" fill="#AD5D15"/>
<rect x="272" y="8" width="8" height="8" fill="#AD5D15"/>
<rect x="248" y="8" width="8" height="8" fill="#AD5D15"/>
<rect x="280" y="8" width="8" height="8" fill="#AD5D15"/>
<rect x="280" width="8" height="8" fill="#AD5D15"/>
<rect x="272" y="24" width="8" height="8" fill="#AD5D15"/>
<rect x="264" y="24" width="8" height="8" fill="#AD5D15"/>
<rect x="256" y="24" width="8" height="8" fill="#AD5D15"/>
<rect x="248" y="24" width="8" height="8" fill="#AD5D15"/>
<rect x="280" y="24" width="8" height="8" fill="#AD5D15"/>
<rect x="288" y="24" width="8" height="8" fill="#AD5D15"/>
<rect x="240" y="24" width="8" height="8" fill="#AD5D15"/>
<rect x="272" y="32" width="8" height="8" fill="#FFDAB5"/>
<rect x="264" y="32" width="8" height="8" fill="#FFDAB5"/>
<rect x="256" y="32" width="8" height="8" fill="#FFDAB5"/>
<rect x="248" y="32" width="8" height="8" fill="#AD5D15"/>
<rect x="280" y="32" width="8" height="8" fill="#AD5D15"/>
<rect x="288" y="32" width="8" height="8" fill="#AD5D15"/>
<rect x="240" y="32" width="8" height="8" fill="#AD5D15"/>
<rect x="272" y="40" width="8" height="8" fill="#2D9CDB"/>
<rect x="264" y="40" width="8" height="8" fill="#FFDAB5"/>
<rect x="256" y="40" width="8" height="8" fill="#2D9CDB"/>
<rect x="248" y="40" width="8" height="8" fill="#FFDAB5"/>
<rect x="280" y="40" width="8" height="8" fill="#FFDAB5"/>
<rect x="288" y="40" width="8" height="8" fill="#FFDAB5"/>
<rect x="240" y="40" width="8" height="8" fill="#FFDAB5"/>
<rect x="272" y="48" width="8" height="8" fill="#FFDAB5"/>
<rect x="264" y="48" width="8" height="8" fill="#FFDAB5"/>
<rect x="256" y="48" width="8" height="8" fill="#FFDAB5"/>
<rect x="248" y="48" width="8" height="8" fill="#FFDAB5"/>
<rect x="280" y="48" width="8" height="8" fill="#FFDAB5"/>
<rect x="288" y="48" width="8" height="8" fill="#FFDAB5"/>
<rect x="240" y="48" width="8" height="8" fill="#FFDAB5"/>
<rect x="272" y="56" width="8" height="8" fill="#FFDAB5"/>
<rect x="264" y="56" width="8" height="8" fill="#FFDAB5"/>
<rect x="256" y="56" width="8" height="8" fill="#FFDAB5"/>
<rect x="248" y="56" width="8" height="8" fill="#FFDAB5"/>
<rect x="280" y="56" width="8" height="8" fill="#FFDAB5"/>
<rect x="288" y="56" width="8" height="8" fill="#AD5D15"/>
<rect x="240" y="56" width="8" height="8" fill="#AD5D15"/>
<rect x="232" y="40" width="8" height="8" fill="#AD5D15"/>
<rect x="232" y="48" width="8" height="8" fill="#AD5D15"/>
<rect x="296" y="40" width="8" height="8" fill="#AD5D15"/>
<rect x="296" y="48" width="8" height="8" fill="#AD5D15"/>
<rect x="272" y="64" width="8" height="8" fill="#A32451"/>
<rect x="264" y="64" width="8" height="8" fill="#A32451"/>
<rect x="256" y="64" width="8" height="8" fill="#A32451"/>
<rect x="248" y="64" width="8" height="8" fill="#A32451"/>
<rect x="280" y="64" width="8" height="8" fill="#A32451"/>
<rect x="288" y="64" width="8" height="8" fill="#A32451"/>
<rect x="240" y="64" width="8" height="8" fill="#A32451"/>
<rect x="272" y="72" width="8" height="8" fill="#A32451"/>
<rect x="264" y="72" width="8" height="8" fill="#A32451"/>
<rect x="256" y="72" width="8" height="8" fill="#A32451"/>
<rect x="248" y="72" width="8" height="8" fill="#A32451"/>
<rect x="280" y="72" width="8" height="8" fill="#A32451"/>
<rect x="288" y="72" width="8" height="8" fill="#A32451"/>
<rect x="296" y="64" width="8" height="8" fill="#FFDAB5"/>
<rect x="296" y="72" width="8" height="8" fill="#FFDAB5"/>
<rect x="232" y="64" width="8" height="8" fill="#FFDAB5"/>
<rect x="232" y="72" width="8" height="8" fill="#FFDAB5"/>
<rect x="240" y="72" width="8" height="8" fill="#A32451"/>
<rect x="272" y="80" width="8" height="8" fill="#A32451"/>
<rect x="264" y="80" width="8" height="8" fill="#A32451"/>
<rect x="256" y="80" width="8" height="8" fill="#A32451"/>
<rect x="248" y="80" width="8" height="8" fill="#A32451"/>
<rect x="280" y="80" width="8" height="8" fill="#A32451"/>
<rect x="272" y="88" width="8" height="8" fill="#2F80ED"/>
<rect x="264" y="88" width="8" height="8" fill="#2F80ED"/>
<rect x="256" y="88" width="8" height="8" fill="#2F80ED"/>
<rect x="248" y="88" width="8" height="8" fill="#2F80ED"/>
<rect x="280" y="88" width="8" height="8" fill="#2F80ED"/>
<rect x="272" y="96" width="8" height="8" fill="#F2F2F2"/>
<rect x="256" y="96" width="8" height="8" fill="#F2F2F2"/>
<rect x="248" y="96" width="8" height="8" fill="#F2F2F2"/>
<rect x="280" y="96" width="8" height="8" fill="#F2F2F2"/>
</svg>
